#!OML:ASF H:\Punching\Project 1\Capture day 1\Session 1\female.ASF
:FULLY-SPECIFIED
:DEGREES
1759
root -2.80923 15.7686 -6.09718 -347.27 -7.62865 -358.723
lowerback -8.08496 -1.15854 3.49663
upperback -6.91805 -1.74051 1.24416
thorax -2.71206 -0.992608 -0.766466
lowerneck -10.4671 8.19001 13.8843
upperneck 36.5105 12.2289 -9.39421
head 16.3803 5.92324 -4.38924
rclavicle 2.54941e-014 1.03368e-014
rhumerus -43.3344 -16.8188 -67.3613
rradius 22.5494
rwrist 15.5572
rhand -11.5631 -5.41355
rfingers 7.12502
rthumb 14.478 -34.8885
lclavicle 2.54941e-014 1.03368e-014
lhumerus -43.9482 7.35399 81.8591
lradius 30.8968
lwrist -24.7159
lhand -2.74689 10.6618
lfingers 7.12502
lthumb 22.9569 39.3149
rfemur -20.3905 4.02068 23.7553
rtibia 27.2715
rfoot -24.8059 -13.6438
rtoes -0.140308
lfemur -20.0343 -5.72702 -24.3973
ltibia 24.4329
lfoot -18.4538 20.3698
ltoes 6.74204
1760
root -2.8018 15.7687 -6.09638 -347.264 -7.53155 -358.754
lowerback -8.09887 -1.13095 3.50138
upperback -6.93896 -1.70372 1.25418
thorax -2.72479 -0.974403 -0.756777
lowerneck -10.4835 8.15759 13.8462
upperneck 36.566 12.1774 -9.34996
head 16.3961 5.90248 -4.37452
rclavicle 8.94531e-016 -1.27222e-014
rhumerus -43.3649 -16.7057 -67.5415
rradius 22.5339
rwrist 15.562
rhand -11.4662 -5.17317
rfingers 7.12502
rthumb 14.5713 -34.6414
lclavicle 8.94531e-016 -1.27222e-014
lhumerus -44.0618 7.36643 81.6689
lradius 30.8473
lwrist -24.6921
lhand -2.66398 10.7172
lfingers 7.12502
lthumb 23.0364 39.3605
rfemur -20.3447 3.94511 23.7627
rtibia 27.2213
rfoot -25.0163 -13.7144
rtoes -0.711471
lfemur -20.0444 -5.76807 -24.3968
ltibia 24.4091
lfoot -18.2681 20.3771
ltoes 7.03426
1761
root -2.79402 15.7686 -6.09594 -347.26 -7.43066 -358.785
lowerback -8.09868 -1.10181 3.50207
upperback -6.96086 -1.66396 1.26364
thorax -2.74609 -0.954672 -0.744883
lowerneck -10.5045 8.12291 13.81
upperneck 36.6178 12.1216 -9.30726
head 16.4108 5.87988 -4.36133
rclavicle 1.59028e-015 3.02153e-014
rhumerus -43.3769 -16.5651 -67.7286
rradius 22.5237
rwrist 15.5724
rhand -11.3788 -4.962
rfingers 7.12502
rthumb 14.6556 -34.4241
lclavicle 1.59028e-015 3.02153e-014
lhumerus -44.1804 7.34138 81.4993
lradius 30.8409
lwrist -24.6416
lhand -2.61705 10.769
lfingers 7.12502
lthumb 23.0814 39.4065
rfemur -20.3005 3.86039 23.7707
rtibia 27.1744
rfoot -25.2246 -13.7821
rtoes -1.28619
lfemur -20.0599 -5.81675 -24.3972
ltibia 24.396
lfoot -18.0726 20.389
ltoes 7.35262
1762
root -2.78611 15.7683 -6.09593 -347.259 -7.322 -358.821
lowerback -8.08606 -1.07279 3.4998
upperback -6.98005 -1.62362 1.27433
thorax -2.77124 -0.934498 -0.729777
lowerneck -10.5332 8.0878 13.7741
upperneck 36.6636 12.063 -9.26333
head 16.4237 5.856 -4.34767
rclavicle 2.38542e-014 -8.74653e-015
rhumerus -43.3615 -16.4342 -67.9015
rradius 22.5061
rwrist 15.633
rhand -11.2778 -4.81956
rfingers 7.12502
rthumb 14.7529 -34.2745
lclavicle 2.38542e-014 -8.74653e-015
lhumerus -44.2974 7.28996 81.3458
lradius 30.8739
lwrist -24.5679
lhand -2.598 10.8145
lfingers 7.12502
lthumb 23.0997 39.4498
rfemur -20.2551 3.77589 23.7845
rtibia 27.1286
rfoot -25.4244 -13.8553
rtoes -1.83731
lfemur -20.0825 -5.86767 -24.393
ltibia 24.3954
lfoot -17.8667 20.4017
ltoes 7.63357
